<svg width="157" height="64" viewBox="0 0 157 64" fill="none" xmlns="http://www.w3.org/2000/svg">
<path d="M33.99 39V24.9H35.53V36.28L44.03 24.9H45.29V39H43.77V27.58L35.25 39H33.99ZM51.8747 39.18C51.0347 39.18 50.2414 39.0733 49.4947 38.86C48.7614 38.6333 48.168 38.32 47.7147 37.92L48.2347 36.78C48.7014 37.1533 49.248 37.44 49.8747 37.64C50.5014 37.8267 51.1547 37.92 51.8347 37.92C52.7947 37.92 53.4814 37.78 53.8947 37.5C54.3214 37.22 54.5347 36.8067 54.5347 36.26C54.5347 35.2067 53.8614 34.68 52.5147 34.68H50.2147V33.46H52.3147C52.888 33.46 53.3414 33.3267 53.6747 33.06C54.0214 32.7933 54.1947 32.42 54.1947 31.94C54.1947 31.46 54.008 31.08 53.6347 30.8C53.2614 30.5067 52.6614 30.36 51.8347 30.36C50.5414 30.36 49.3947 30.7133 48.3947 31.42L47.8747 30.28C48.968 29.4933 50.3547 29.1 52.0347 29.1C53.2747 29.1 54.2014 29.34 54.8147 29.82C55.428 30.3 55.7347 30.9733 55.7347 31.84C55.7347 32.3333 55.588 32.7733 55.2947 33.16C55.0147 33.5333 54.628 33.8067 54.1347 33.98C54.7347 34.1267 55.208 34.4067 55.5547 34.82C55.9014 35.22 56.0747 35.72 56.0747 36.32C56.0747 37.1867 55.7214 37.88 55.0147 38.4C54.308 38.92 53.2614 39.18 51.8747 39.18ZM62.6961 39.18C61.2561 39.18 60.1161 38.7067 59.2761 37.76C58.4361 36.8133 58.0161 35.44 58.0161 33.64V32.14C58.0161 30.2067 58.4028 28.74 59.1761 27.74C59.9494 26.7267 61.1228 26.0067 62.6961 25.58L66.1561 24.6L66.6961 25.94L62.8161 26.98C61.7361 27.2733 60.9228 27.8 60.3761 28.56C59.8428 29.3067 59.5761 30.2267 59.5761 31.32V31.36C59.8828 30.7067 60.3361 30.1933 60.9361 29.82C61.5361 29.4333 62.2428 29.24 63.0561 29.24C63.8961 29.24 64.6361 29.44 65.2761 29.84C65.9161 30.24 66.4094 30.8133 66.7561 31.56C67.1161 32.2933 67.2961 33.16 67.2961 34.16C67.2961 35.1733 67.1028 36.06 66.7161 36.82C66.3428 37.5667 65.8094 38.1467 65.1161 38.56C64.4361 38.9733 63.6294 39.18 62.6961 39.18ZM62.6361 37.88C63.5828 37.88 64.3228 37.5667 64.8561 36.94C65.3894 36.3 65.6561 35.3867 65.6561 34.2C65.6561 33.04 65.3894 32.14 64.8561 31.5C64.3228 30.86 63.5894 30.54 62.6561 30.54C61.7228 30.54 60.9894 30.8533 60.4561 31.48C59.9228 32.1067 59.6561 32.9667 59.6561 34.06C59.6561 35.3133 59.9161 36.2667 60.4361 36.92C60.9561 37.56 61.6894 37.88 62.6361 37.88ZM73.0042 39.18C72.3376 39.18 71.7376 39.0533 71.2042 38.8C70.6842 38.5333 70.2709 38.1733 69.9642 37.72C69.6576 37.2667 69.5042 36.76 69.5042 36.2C69.5042 35.4933 69.6842 34.9333 70.0442 34.52C70.4176 34.1067 71.0242 33.8133 71.8642 33.64C72.7176 33.4533 73.8776 33.36 75.3442 33.36H75.9842V32.74C75.9842 31.9133 75.8109 31.32 75.4642 30.96C75.1309 30.5867 74.5909 30.4 73.8442 30.4C73.2576 30.4 72.6909 30.4867 72.1442 30.66C71.5976 30.82 71.0376 31.0867 70.4642 31.46L69.9042 30.28C70.4109 29.92 71.0242 29.6333 71.7442 29.42C72.4776 29.2067 73.1776 29.1 73.8442 29.1C75.0976 29.1 76.0242 29.4067 76.6242 30.02C77.2376 30.6333 77.5442 31.5867 77.5442 32.88V39H76.0242V37.32C75.7709 37.8933 75.3776 38.3467 74.8442 38.68C74.3242 39.0133 73.7109 39.18 73.0042 39.18ZM73.2642 37.96C74.0642 37.96 74.7176 37.6867 75.2242 37.14C75.7309 36.58 75.9842 35.8733 75.9842 35.02V34.42H75.3642C74.2842 34.42 73.4309 34.4733 72.8042 34.58C72.1909 34.6733 71.7576 34.8467 71.5042 35.1C71.2642 35.34 71.1442 35.6733 71.1442 36.1C71.1442 36.6467 71.3309 37.0933 71.7042 37.44C72.0909 37.7867 72.6109 37.96 73.2642 37.96ZM80.7055 39V29.28H82.3255V33.32H87.6255V29.28H89.2455V39H87.6255V34.64H82.3255V39H80.7055ZM92.4438 39V29.28H94.0638V33.32H99.3638V29.28H100.984V39H99.3638V34.64H94.0638V39H92.4438ZM108.242 39.18C107.295 39.18 106.475 38.9733 105.782 38.56C105.089 38.1467 104.549 37.5667 104.162 36.82C103.789 36.06 103.602 35.1667 103.602 34.14C103.602 33.1133 103.789 32.2267 104.162 31.48C104.549 30.72 105.089 30.1333 105.782 29.72C106.475 29.3067 107.295 29.1 108.242 29.1C109.175 29.1 109.989 29.3067 110.682 29.72C111.389 30.1333 111.929 30.72 112.302 31.48C112.689 32.2267 112.882 33.1133 112.882 34.14C112.882 35.1667 112.689 36.06 112.302 36.82C111.929 37.5667 111.389 38.1467 110.682 38.56C109.989 38.9733 109.175 39.18 108.242 39.18ZM108.242 37.88C109.149 37.88 109.875 37.56 110.422 36.92C110.969 36.2667 111.242 35.34 111.242 34.14C111.242 32.9267 110.969 32 110.422 31.36C109.875 30.72 109.149 30.4 108.242 30.4C107.322 30.4 106.589 30.72 106.042 31.36C105.509 32 105.242 32.9267 105.242 34.14C105.242 35.34 105.509 36.2667 106.042 36.92C106.589 37.56 107.322 37.88 108.242 37.88ZM119.91 39.18C118.377 39.18 117.163 38.7333 116.27 37.84C115.377 36.9333 114.93 35.7067 114.93 34.16C114.93 33.16 115.13 32.28 115.53 31.52C115.93 30.7467 116.477 30.1533 117.17 29.74C117.877 29.3133 118.69 29.1 119.61 29.1C120.93 29.1 121.963 29.5267 122.71 30.38C123.457 31.22 123.83 32.38 123.83 33.86V34.48H116.51C116.563 35.5867 116.883 36.4333 117.47 37.02C118.057 37.5933 118.87 37.88 119.91 37.88C120.497 37.88 121.057 37.7933 121.59 37.62C122.123 37.4333 122.63 37.1333 123.11 36.72L123.67 37.86C123.23 38.2733 122.67 38.6 121.99 38.84C121.31 39.0667 120.617 39.18 119.91 39.18ZM119.65 30.3C118.73 30.3 118.003 30.5867 117.47 31.16C116.937 31.7333 116.623 32.4867 116.53 33.42H122.43C122.39 32.4333 122.13 31.6667 121.65 31.12C121.183 30.5733 120.517 30.3 119.65 30.3Z" fill="#605DEC"/>
</svg>
